# xmcd CD database file
#
# Track frame offsets:
#	150
#	18913
#	39217
#	49555
#	66981
#	87821
#	105697
#	120683
#	145705
#	159319
#	185493
#	197014
#
# Disc length: 2866 seconds
#
# Revision: 0
# Processed by: cddbd v1.5.2PL0 Copyright (c) Steve Scherf et al.
# Submitted via: CDex 1.51
#
DISCID=940b300c
DTITLE=Cologne Blues Club - Our Streets
DYEAR=2010
DGENRE=Blues
TTITLE0=Back For Blues
TTITLE1=Some Change
TTITLE2=Let Us Roll
TTITLE3=Desperation
TTITLE4=look What You've done
TTITLE5=Back To Me
TTITLE6=Lie No better
TTITLE7=Shame, shame, Shame
TTITLE8=Cologne City Man
TTITLE9=Night Is Calling
TTITLE10=Wrong Woman
TTITLE11=Gotta Get It Worked Out
EXTD=YEAR: 2010
EXTT0=
EXTT1=
EXTT2=
EXTT3=
EXTT4=
EXTT5=
EXTT6=
EXTT7=
EXTT8=
EXTT9=
EXTT10=
EXTT11=
PLAYORDER=
